<?xml version="1.0" encoding="UTF-8"?>
<svg id="Layer_2" data-name="Layer 2" xmlns="http://www.w3.org/2000/svg" xmlns:xlink="http://www.w3.org/1999/xlink" viewBox="0 0 2645.5 1389.14">
  <defs>
    <style>
      .cls-1 {
        fill: #6d6e71;
      }

      .cls-1, .cls-2, .cls-3 {
        stroke-width: 0px;
      }

      .cls-4 {
        clip-path: url(#clippath-2);
      }

      .cls-2 {
        fill: none;
      }

      .cls-5 {
        clip-path: url(#clippath-1);
      }

      .cls-6 {
        clip-path: url(#clippath);
      }

      .cls-3 {
        fill: #f4792c;
        fill-rule: evenodd;
      }
    </style>
    <clipPath id="clippath">
      <rect class="cls-2" x="0" width="2645.5" height="1389.14"/>
    </clipPath>
    <clipPath id="clippath-1">
      <rect class="cls-2" x="-109.44" y="-626.56" width="2834.65" height="2267.72"/>
    </clipPath>
    <clipPath id="clippath-2">
      <rect class="cls-2" x="-109.44" y="-626.56" width="2834.65" height="2267.72"/>
    </clipPath>
  </defs>
  <g id="Layer_1-2" data-name="Layer 1">
    <g class="cls-6">
      <g class="cls-5">
        <g class="cls-4">
          <path class="cls-1" d="m978.91,1084.39c-37.19,15.94-75.46,27.89-114.81,35.86-39.36,7.97-79.08,11.95-119.16,11.95-109.14,0-194.74-29.94-256.78-89.82-62.06-59.87-93.08-141.72-93.08-245.55,0-153.08,44.3-277.43,132.92-373.04,88.61-95.62,204.38-143.42,347.33-143.42,47.32,0,91.51,4.96,132.56,14.85,41.04,9.9,79.92,25.24,116.62,46l-38.39,194.13c-29.46-28-60.61-48.77-93.44-62.3-32.85-13.51-68.09-20.28-105.75-20.28-82.1,0-148.86,29.95-200.29,89.82-51.43,59.88-77.14,137.63-77.14,233.24,0,61.82,14.73,107.93,44.19,138.35,29.45,30.42,74.12,45.64,134,45.64,33.8,0,69.9-6.27,108.29-18.83,38.39-12.55,79.55-31.39,123.5-56.5l-40.56,199.92Z"/>
          <path class="cls-1" d="m1858.57,648.34l-89.1,471.13h-210.78l18.11-98.82c-32.36,37.19-69.42,65.08-111.19,83.66-41.77,18.58-64.4,23.75-117.52,23.75-72.92,0-126.61-16.98-169.34-59.24-42.74-42.25-64.1-99.35-64.1-171.31,0-103.82,37.54-183.14,112.64-237.95,75.08-54.8,154.42-82.21,295.92-82.21h139.8l5.8-35.49c.48-2.9.84-5.67,1.09-8.33.24-2.65.36-6.88.36-12.68,0-27.53-12.32-48.53-36.94-63.02-24.63-14.49-60.37-21.73-107.21-21.73-39.6,0-84.38,6.88-134.37,20.64-49.98,13.76-169.66,58.99-226.63,86.03l34.05-189.36c108.41-57.42,172.3-61.92,220.83-71.33,48.53-9.42,94.76-9.99,138.72-9.99,104.78,0,184.22,26.63,238.31,63.32,54.08,36.7,81.13,90.55,81.13,161.53,0,18.83-1.7,41.05-5.07,66.64-3.39,25.6-8.22,53.85-14.49,84.75m-307.13,78.95c-83.06,0-144.63,12.56-184.71,37.67-40.09,25.11-60.12,63.99-60.12,116.62,0,30.42,9.78,55.54,29.34,75.33,19.56,19.81,44.55,29.7,74.97,29.7,56.98,0,104.78-22.45,143.42-67.36,38.63-44.91,64.94-108.89,78.95-191.95h-81.85Z"/>
          <path class="cls-1" d="m2605.06,520.85c-23.18-20.76-49.02-36.09-77.51-46-28.5-9.89-60.61-14.85-96.34-14.85-80.17,0-141.86,21.26-185.08,63.75-43.22,42.5-74.49,113.72-93.8,213.68l-72.43,382.04h-213.68l158.63-819.55h212.24l-25.35,126.04c29.94-46.36,68.82-82.21,116.62-107.57,47.81-25.35,100.44-38.03,157.91-38.03,29.94,0,58.31,3.62,85.11,10.86,26.8,7.24,50.82,17.39,72.08,30.42l-38.39,199.2Z"/>
          <path class="cls-3" d="m447.13,175.88c-23.55,69.76-91.45,109.83-151.65,89.5-60.2-20.33-89.91-93.35-66.36-163.1C252.68,32.52,320.57-7.55,380.77,12.78c60.2,20.32,89.91,93.35,66.36,163.11"/>
          <path class="cls-3" d="m347.65,322.02c.2-.46-1-.15-.79-.6-4.96-2.97-10.56-7.07-16.08-8.94-44.49-16.3-80.1-9.48-117.11,2.54-7.33,3.89-14.9,6.91-22.69,9.06-73.52,42.13-79.16,46.61-120.27,86.75-31.21,35.31-14.61,47.44,5.61,35.31,18.41-11.04,36.21-21.28,62.48-1.89,24.52,18.1-5.58,89.82-17.66,130.37-16.4,55.02-31.97,106.49-47.42,157.7h.56c-18.87,57.32-36.52,113.82-50.79,172.28-19.33,79.19-37.67,159.6,17.02,203.29-.2.47,1,.15.8.6,4.96,2.97,10.56,7.07,16.08,8.94,44.49,16.3,80.09,9.48,117.1-2.54,7.34-3.88,14.9-6.9,22.69-9.06,73.52-42.13,79.16-46.61,120.27-86.75,31.21-35.31,14.61-47.44-5.61-35.31-18.41,11.04-36.22,21.27-62.48,1.89-24.52-18.1,5.58-89.82,17.66-130.36,17.8-59.72,34.63-115.26,51.38-170.82h-.21c17.24-52.84,33.3-105.15,46.48-159.16,19.33-79.19,37.67-159.6-17.02-203.29"/>
        </g>
      </g>
      <g>
        <path class="cls-1" d="m80.18,1259.21H4.62l-.48-55.53h36.23v28.84h75.55v22.64l-37.9,125.13h-36.94l39.09-121.08Z"/>
        <path class="cls-1" d="m188.15,1308.31c-4.77,2.15-9.77,5.24-11.44,11.2-2.38,8.34-3.34,29.55-4.77,60.78h-36.47c3.34-34.8,6.44-65.78,11.92-75.55,4.05-7.63,14.06-14.06,24.07-18.59-12.16-15.97-25.03-31.94-38.37-47.43v-6.2h36.94c14.3,17.64,30.98,39.57,48.15,62.92,5.24-3.81,10.49-9.3,11.92-14.3,1.91-5.96,3.34-25.5,5.01-48.62h35.51c-3.1,23.36-5.72,48.15-10.49,59.11-3.58,8.58-16.21,17.88-28.36,22.4,14.78,20.5,29.55,41.23,43.14,60.3l-.24,5.96h-36.7c-14.78-22.4-31.46-46.95-49.81-71.98Z"/>
        <path class="cls-1" d="m351.18,1280.66c0-15.25-5.24-21.45-19.31-21.45h-43.85v-26.69h52.67c31.22,0,46,15.25,46,47.91v32.41h.24v67.45h-35.75v-99.63Z"/>
        <path class="cls-1" d="m430.31,1373.62l-25.03-141.1h35.04l11.2,73.65c8.58-3.1,17.16-7.87,19.54-15.49,3.1-9.77,3.58-26.69,5.24-58.16h34.8c-2.38,32.42-4.53,55.53-9.53,67.21-6.2,14.3-25.74,23.83-46.95,27.41l4.05,26.69h19.78c50.77,0,57.92-27.65,61.02-62.45l5.01-58.87h35.04l-5,56.73c-4.53,54.1-26.22,91.05-94.15,91.05h-40.52l-9.53-6.67Z"/>
        <path class="cls-1" d="m615.98,1259.21h-20.74v-26.69h56.49v95.1h-35.75v-68.4Z"/>
        <path class="cls-1" d="m798.08,1259.21h-75.55l-.48-55.53h36.23v28.84h75.55v22.64l-37.9,125.13h-36.94l39.09-121.08Z"/>
        <path class="cls-1" d="m874.59,1373.62l-25.03-141.1h35.04l11.2,73.65c8.58-3.1,17.16-7.87,19.54-15.49,3.1-9.77,3.58-26.69,5.24-58.16h34.8c-2.38,32.42-4.53,55.53-9.53,67.21-6.2,14.3-25.74,23.83-46.95,27.41l4.05,26.69h19.78c50.77,0,57.92-27.65,61.02-62.45l5.01-58.87h35.04l-5.01,56.73c-4.53,54.1-26.22,91.05-94.15,91.05h-40.52l-9.53-6.67Z"/>
        <path class="cls-1" d="m1092.67,1353.6h63.16v-94.38h-61.73v-26.69h97.48v121.08h15.97v26.69h-114.88v-26.69Z"/>
        <path class="cls-1" d="m1223.05,1378.86v-26.93c10.01,2.14,21.69,3.58,31.94,3.1,29.32-1.43,38.61-21.21,38.37-48.62-.48-29.79-11.44-47.19-41.71-47.19h-30.75v-26.69h42.66c43.38,0,65.78,25.03,66.26,72.22.48,42.9-17.4,74.36-67.21,76.98-11.44.72-27.65-.24-39.56-2.86Z"/>
        <path class="cls-1" d="m1403.48,1280.66c0-15.25-5.24-21.45-19.31-21.45h-43.85v-26.69h52.67c31.22,0,46,15.25,46,47.91v32.41h.24v67.45h-35.75v-99.63Z"/>
        <path class="cls-1" d="m1462.82,1232.52h124.18v147.77h-35.51v-121.08h-88.66v-26.69Zm5.72,59.35h35.04v88.42h-35.04v-88.42Z"/>
        <path class="cls-1" d="m1720.48,1280.66c0-15.25-5.24-21.45-19.31-21.45h-43.85v-26.69h52.67c31.22,0,46,15.25,46,47.91v32.41h.24v67.45h-35.75v-99.63Z"/>
        <path class="cls-1" d="m1776.01,1379.1v-26.46c5.01.95,11.44,2.38,16.92,1.67,9.3-.95,11.68-6.91,11.68-15.25v-79.84h-22.4l-.24-26.69h98.91c31.22,0,46,15.25,46,47.91v99.87h-35.51v-99.63c0-15.25-5.24-21.45-19.31-21.45h-33.13v78.42c0,30.27-12.39,44.57-40.52,44.57-6.91,0-16.21-1.43-22.4-3.1Z"/>
        <path class="cls-1" d="m2001.96,1308.31c-4.77,2.15-9.77,5.24-11.44,11.2-2.38,8.34-3.34,29.55-4.77,60.78h-36.47c3.34-34.8,6.44-65.78,11.92-75.55,4.05-7.63,14.06-14.06,24.07-18.59-12.16-15.97-25.03-31.94-38.37-47.43v-6.2h36.94c14.3,17.64,30.98,39.57,48.15,62.92,5.24-3.81,10.49-9.3,11.92-14.3,1.91-5.96,3.34-25.5,5.01-48.62h35.51c-3.1,23.36-5.72,48.15-10.49,59.11-3.58,8.58-16.21,17.88-28.36,22.4,14.78,20.5,29.55,41.23,43.14,60.3l-.24,5.96h-36.7c-14.78-22.4-31.46-46.95-49.81-71.98Z"/>
      </g>
    </g>
  </g>
</svg>